<svg width="661.333" height="661.333" viewBox="0 0 496 496" xmlns="http://www.w3.org/2000/svg" xmlns:xlink="http://www.w3.org/1999/xlink" overflow="hidden"><path d="M328 424 328 432C328 436.398 324.398 440 320 440L296 440 296 408 320 408C324.398 408 328 411.602 328 416Z" fill="#838F9B"/><path d="M448 216 448 232C448 240.801 440.801 248 432 248L400 248 400 184 432 184C440.801 184 448 191.199 448 200Z" fill="#AAB2BD"/><path d="M424 248 424 312 8 312 8 72 424 72 424 136 200 136 200 104 40 104 40 280 200 280 200 236 224 248Z" fill="#E6E9ED"/><path d="M424 136 424 184 224 184 200 196 200 136Z" fill="#E6E9ED"/><path d="M8 8 424 8 424 72 8 72Z" fill="#FF826E"/><path d="M224 216 400 216 400 248 224 248Z" fill="#FCD770"/><path d="M224 184 400 184 400 216 224 216Z" fill="#FCD770"/><path d="M296 440 296 472C296 480.801 288.801 488 280 488L56 488C47.1992 488 40 480.801 40 472L40 376C40 367.199 47.1992 360 56 360L280 360C288.801 360 296 367.199 296 376Z" fill="#AAB2BD"/><path d="M224 216 224 248 160 216 224 184Z" fill="#838F9B"/><path d="M200 236 200 280 40 280 40 104 200 104 200 196 160 216Z" fill="#B4DD7F"/><path d="M32 32 48 32 48 48 32 48Z"/><path d="M64 32 80 32 80 48 64 48Z"/><path d="M96 32 112 32 112 48 96 48Z"/><path d="M64 448 80 448 80 464 64 464Z"/><path d="M96 448 208 448 208 464 96 464Z"/><path d="M224 448 240 448 240 464 224 464Z"/><path d="M256 448 272 448 272 464 256 464Z"/><path d="M256 416 272 416 272 432 256 432Z"/><path d="M256 384 272 384 272 400 256 400Z"/><path d="M224 416 240 416 240 432 224 432Z"/><path d="M224 384 240 384 240 400 224 400Z"/><path d="M192 416 208 416 208 432 192 432Z"/><path d="M192 384 208 384 208 400 192 400Z"/><path d="M160 416 176 416 176 432 160 432Z"/><path d="M160 384 176 384 176 400 160 400Z"/><path d="M128 416 144 416 144 432 128 432Z"/><path d="M128 384 144 384 144 400 128 400Z"/><path d="M96 416 112 416 112 432 96 432Z"/><path d="M96 384 112 384 112 400 96 400Z"/><path d="M64 416 80 416 80 432 64 432Z"/><path d="M64 384 80 384 80 400 64 400Z"/><path d="M472 208 456 208 456 200C456 186.77 445.23 176 432 176L432 0 0 0 0 320 432 320 432 256C445.23 256 456 245.23 456 232L456 224 472 224C476.406 224 480 227.586 480 232L480 328C480 332.414 476.406 336 472 336L392 336C378.77 336 368 346.77 368 360 368 373.23 378.77 384 392 384L440 384C444.406 384 448 387.586 448 392L448 408C448 412.414 444.406 416 440 416L336 416C336 407.176 328.824 400 320 400L304 400 304 376C304 362.77 293.23 352 280 352L56 352C42.7695 352 32 362.77 32 376L32 472C32 485.23 42.7695 496 56 496L280 496C293.23 496 304 485.23 304 472L304 448 320 448C328.824 448 336 440.824 336 432L440 432C453.23 432 464 421.23 464 408L464 392C464 378.77 453.23 368 440 368L392 368C387.594 368 384 364.414 384 360 384 355.586 387.594 352 392 352L472 352C485.23 352 496 341.23 496 328L496 232C496 218.77 485.23 208 472 208ZM416 16 416 64 16 64 16 16ZM416 304 16 304 16 80 416 80 416 176 222.113 176 208 183.055 208 96 32 96 32 288 208 288 208 248.945 222.113 256 416 256ZM232 240 232 224 392 224 392 240ZM192 191.055 142.113 216 192 240.945 192 272 48 272 48 112 192 112ZM177.887 216 216 196.945 216 235.055ZM392 208 232 208 232 192 392 192ZM440 232C440 236.414 436.406 240 432 240L408 240 408 192 432 192C436.406 192 440 195.586 440 200ZM288 472C288 476.414 284.406 480 280 480L56 480C51.5938 480 48 476.414 48 472L48 376C48 371.586 51.5938 368 56 368L280 368C284.406 368 288 371.586 288 376ZM320 432 304 432 304 416 320 416Z"/><path d="M224 96 240 96 240 112 224 112Z"/><path d="M256 96 400 96 400 112 256 112Z"/><path d="M224 128 400 128 400 144 224 144Z"/></svg>