<svg width="512" height="512" viewBox="0 0 512 512" xmlns="http://www.w3.org/2000/svg" xmlns:xlink="http://www.w3.org/1999/xlink" id="Layer_1" overflow="hidden"><path d="M470.67 286.28 470.67 421.17C470.67 449.245 447.91 472.005 419.835 472.005 391.76 472.005 369 449.245 369 421.17L369 286.28Z" fill="#DDC8C5"/><path d="M369 421.17 369 40 41 40 41 409.35C41 443.95 69.38 472 103.99 472L419.83 472C391.758 471.998 369.002 449.242 369 421.17Z" fill="#F8E6E2"/><path d="M207.36 279.38 310.9 279.38 310.9 415.91 207.36 415.91Z" fill="#E1B7A3"/><path d="M71 409.35 71 40 41 40 41 409.35C41 443.95 69.38 472 103.99 472L133.99 472C99.38 472 71 443.95 71 409.35Z" fill="#DDCBC7"/><path d="M207.36 279.38 237.36 279.38 237.36 415.91 207.36 415.91Z" fill="#BC9384"/><g fill="#284268"><path d="M103.987 478 425.187 478C426.108 477.999 427.02 477.81 427.865 477.444 455.955 473.506 476.887 449.532 477 421.168L477 286.282C476.866 282.85 474.099 280.106 470.666 280L375 280 375 40C375 36.6863 372.314 34 369 34L41.334 34C37.9541 33.9748 35.1578 36.6237 35 40L35 409.347C35 447.2 66.131 478 103.987 478ZM375 292 465 292 465 421.168C465 446.021 444.853 466.168 420 466.168 395.147 466.168 375 446.021 375 421.168ZM47 46 363 46 363 421.168C363.004 438.703 371.113 455.252 384.968 466L103.987 466C72.749 466 47 440.585 47 409.347Z"/><path d="M426 331.333C429.314 331.333 432 328.647 432 325.333L432 319.033C432 315.719 429.314 313.033 426 313.033 422.686 313.033 420 315.719 420 319.033L420 325.333C420 328.647 422.686 331.333 426 331.333Z"/><path d="M426 417.333C429.314 417.333 432 414.647 432 411.333L432 348.333C432 345.019 429.314 342.333 426 342.333 422.686 342.333 420 345.019 420 348.333L420 411.333C420 414.647 422.686 417.333 426 417.333Z"/><path d="M85.191 186 310.9 186C314.214 186 316.9 183.314 316.9 180 316.9 176.686 314.214 174 310.9 174L85.191 174C81.8773 174 79.191 176.686 79.191 180 79.191 183.314 81.8773 186 85.191 186Z"/><path d="M85.191 286 169 286C172.314 286 175 283.314 175 280 175 276.686 172.314 274 169 274L85.191 274C81.8773 274 79.191 276.686 79.191 280 79.191 283.314 81.8773 286 85.191 286Z"/><path d="M85.191 422 168.728 422C172.042 422 174.728 419.314 174.728 416 174.728 412.686 172.042 410 168.728 410L85.191 410C81.8773 410 79.191 412.686 79.191 416 79.191 419.314 81.8773 422 85.191 422Z"/><path d="M85.191 338 168.728 338C172.042 338 174.728 335.314 174.728 332 174.728 328.686 172.042 326 168.728 326L85.191 326C81.8773 326 79.191 328.686 79.191 332 79.191 335.314 81.8773 338 85.191 338Z"/><path d="M85.191 380 168.728 380C172.042 380 174.728 377.314 174.728 374 174.728 370.686 172.042 368 168.728 368L85.191 368C81.8773 368 79.191 370.686 79.191 374 79.191 377.314 81.8773 380 85.191 380Z"/><path d="M85.191 234 310.9 234C314.214 234 316.9 231.314 316.9 228 316.9 224.686 314.214 222 310.9 222L85.191 222C81.8773 222 79.191 224.686 79.191 228 79.191 231.314 81.8773 234 85.191 234Z"/><path d="M91.5 137.753C94.309 137.753 97 136.602 97 134.297L97 109.815 110.917 134.729C112.285 137.25 114.69 137.753 117.282 137.753 120.091 137.753 123 136.602 123 134.297L123 88.5C123 86.124 120.309 85.116 117.5 85.116 114.691 85.116 112 86.125 112 88.5L112 112.982 100.235 90.732C97.499 85.476 95.818 85.116 91.786 85.116 88.978 85.117 86 86.2 86 88.573L86 134.3C86 136.6 88.692 137.753 91.5 137.753Z"/><path d="M138.581 138 164.215 138C166.592 138 167.6 135.376 167.6 133.072 167.6 130.408 166.375 128 164.215 128L145 128 145 116 155.719 116C158.095 116 159.103 113.516 159.103 111.572 159.103 109.272 157.879 107 155.719 107L145 107 145 95 164.215 95C166.375 95 167.6 92.592 167.6 89.928 167.6 87.628 166.592 85 164.215 85L138.581 85C136.133 85 134 86.269 134 88.573L134 134.3C134 136.6 136.133 138 138.581 138Z"/><path d="M186.173 134.441C186.965 136.961 190.273 138.186 193.589 138.186 196.83 138.186 200.289 136.961 200.862 134.441L204.606 117.375 208.351 134.441C208.927 136.961 212.383 138.186 215.623 138.186 218.936 138.186 222.176 136.961 223.04 134.441L237.369 90.518C237.463 90.2145 237.512 89.8987 237.513 89.581 237.513 87.133 233.481 85.117 230.241 85.117 228.512 85.117 227.072 85.693 226.641 87.205L215.7 124.144 210.012 99.806C209.58 97.862 207.06 96.854 204.612 96.854 202.164 96.854 199.644 97.862 199.212 99.806L193.523 124.144 182.572 87.205C182.14 85.693 180.7 85.117 178.972 85.117 175.732 85.117 171.699 87.133 171.699 89.581 171.7 89.8987 171.749 90.2145 171.843 90.518Z"/><path d="M259.109 128.393C252.409 128.393 250.252 123.064 246.868 123.064 244.132 123.064 241.968 126.664 241.968 129.113 241.968 133.865 249.888 138.474 259.321 138.474 269.762 138.474 277.321 132.857 277.321 122.488 277.321 104.343 254.494 105.71 254.494 98.51 254.494 96.278 256.583 94.189 261.694 94.189 267.594 94.189 268.967 96.926 271.559 96.926 274.727 96.926 276.024 92.965 276.024 91.021 276.024 85.405 265.511 84.685 261.694 84.685 252.694 84.685 243.261 88.785 243.261 99.59 243.261 116.439 266.087 114.927 266.087 123.64 266.094 127.1 262.421 128.393 259.109 128.393Z"/><path d="M310.624 273 207.364 273C203.854 273.01 201.01 275.854 201 279.364L201 306C201 309.314 203.686 312 207 312 210.314 312 213 309.314 213 306L213 285 305 285 305 410 213 410 213 346C213 342.686 210.314 340 207 340 203.686 340 201 342.686 201 346L201 415.914C201.008 419.272 203.728 421.992 207.086 422L310.9 422C314.265 421.991 316.991 419.265 317 415.9L317 279.376C316.99 275.859 314.141 273.01 310.624 273Z"/></g></svg>