<svg width="512" height="512" viewBox="0 0 256 256" xmlns="http://www.w3.org/2000/svg" xmlns:xlink="http://www.w3.org/1999/xlink" id="Layer_1" overflow="hidden"><path d="M85.752 180 85.752 149 26 149 26 180C26 182.761 28.239 185 31 185L87.64 185C86.597 185 85.752 182.761 85.752 180Z" fill="#A4D4A0"/><path d="M158.248 149 158.248 180C158.248 182.761 157.403 185 156.36 185L213 185C215.761 185 218 182.761 218 180L218 149Z" fill="#419B46"/><path d="M158.248 180 158.248 149 158 149C138.118 149 122 165.118 122 185L156.36 185C157.403 185 158.248 182.761 158.248 180Z" fill="#65BC49"/><path d="M86 149 85.752 149 85.752 180C85.752 182.761 86.597 185 87.64 185L122 185C122 165.118 105.882 149 86 149Z" fill="#65BC49"/><path d="M122 188 31 188C26.589 188 23 184.411 23 180L23 149C23 147.343 24.343 146 26 146L86 146C107.505 146 125 163.495 125 185 125 186.657 123.657 188 122 188ZM29 152 29 180C29 181.103 29.897 182 31 182L118.865 182C117.345 165.203 103.186 152 86 152Z" fill="#1C2D6B"/><path d="M213 188 122 188C120.343 188 119 186.657 119 185 119 163.495 136.495 146 158 146L218 146C219.657 146 221 147.343 221 149L221 180C221 184.411 217.411 188 213 188ZM125.135 182 213 182C214.103 182 215 181.103 215 180L215 152 158 152C140.814 152 126.655 165.203 125.135 182Z" fill="#1C2D6B"/><path d="M108.505 149 86.013 149 86.013 52C86.013 49.387 86.767 47.266 87.725 47.043 87.153 47.017 86.579 47 86 47L31 47C28.239 47 26 49.239 26 52L26 149 86 149C105.882 149 122 165.118 122 185 122 165.118 115.958 149 108.505 149Z" fill="#EDE49D"/><path d="M213 47 158 47C157.421 47 156.847 47.017 156.275 47.043 157.233 47.266 157.987 49.386 157.987 52L157.987 149 135.495 149C128.042 149 122 165.118 122 185 122 165.118 138.118 149 158 149L218 149 218 52C218 49.239 215.761 47 213 47Z" fill="#D3BA2A"/><path d="M135.495 149 157.987 149 157.987 52C157.987 49.387 157.233 47.266 156.275 47.043 137.194 47.944 122 63.696 122 83 122 63.696 106.806 47.944 87.725 47.043 86.767 47.266 86.013 49.386 86.013 52L86.013 149 108.505 149C115.958 149 122 165.118 122 185 122 165.118 128.042 149 135.495 149Z" fill="#EEE045"/><g fill="#1C2D6B"><path d="M122 188C120.343 188 119 186.657 119 185 119 166.804 104.196 152 86 152L26 152C24.343 152 23 150.657 23 149L23 52C23 47.589 26.589 44 31 44L86 44C102.191 44 116.111 53.92 122 67.999 127.889 53.92 141.809 44 158 44L213 44C217.411 44 221 47.589 221 52L221 149C221 150.657 219.657 152 218 152L158 152C139.804 152 125 166.804 125 185 125 186.657 123.657 188 122 188ZM29 146 86 146C102.191 146 116.111 155.92 122 169.999 127.889 155.92 141.809 146 158 146L215 146 215 52C215 50.897 214.103 50 213 50L158 50C139.804 50 125 64.804 125 83 125 84.657 123.657 86 122 86 120.343 86 119 84.657 119 83 119 64.804 104.196 50 86 50L31 50C29.897 50 29 50.897 29 52Z"/><path d="M121.872 188C120.215 188 118.872 186.657 118.872 185L118.872 80.076C118.872 78.419 120.215 77.076 121.872 77.076 123.529 77.076 124.872 78.419 124.872 80.076L124.872 185C124.872 186.657 123.528 188 121.872 188Z"/><path d="M86 164 26 164C24.343 164 23 162.657 23 161 23 159.343 24.343 158 26 158L86 158C87.657 158 89 159.343 89 161 89 162.657 87.657 164 86 164Z"/><path d="M98 176 26 176C24.343 176 23 174.657 23 173 23 171.343 24.343 170 26 170L98 170C99.657 170 101 171.343 101 173 101 174.657 99.657 176 98 176Z"/><path d="M217.987 164 157.987 164C156.33 164 154.987 162.657 154.987 161 154.987 159.343 156.33 158 157.987 158L217.987 158C219.644 158 220.987 159.343 220.987 161 220.987 162.657 219.644 164 217.987 164Z"/><path d="M217.987 176 145.987 176C144.33 176 142.987 174.657 142.987 173 142.987 171.343 144.33 170 145.987 170L217.987 170C219.644 170 220.987 171.343 220.987 173 220.987 174.657 219.644 176 217.987 176Z"/></g><path d="M56 47 56 203 64.594 198.703 64.594 47Z" fill="#EF7F72"/><path d="M80 47 71.406 47 71.406 198.703 80 203Z" fill="#E8383B"/><path d="M64.594 47 64.594 198.703 68 197 71.406 198.703 71.406 47Z" fill="#E95947"/><path d="M80 206C79.542 206 79.082 205.895 78.658 205.684L68 200.354 57.342 205.683C56.412 206.147 55.308 206.098 54.423 205.551 53.539 205.005 53 204.04 53 203L53 47C53 45.343 54.343 44 56 44L80 44C81.657 44 83 45.343 83 47L83 203C83 204.04 82.461 205.005 81.577 205.552 81.095 205.85 80.548 206 80 206ZM68 194C68.459 194 68.919 194.105 69.342 194.316L77 198.146 77 50 59 50 59 198.146 66.658 194.317C67.081 194.105 67.541 194 68 194Z" fill="#1C2D6B"/><path d="M176 128C176 106.461 182.716 89 191 89 169.461 89 152 106.461 152 128 152 149.539 169.461 167 191 167 182.716 167 176 149.539 176 128Z" fill="#EF7F72"/><path d="M191 89C199.284 89 206 106.461 206 128 206 149.539 199.284 167 191 167 212.539 167 230 149.539 230 128 230 106.461 212.539 89 191 89Z" fill="#E8383B"/><ellipse cx="191" cy="128" rx="15" ry="39" fill="#E95947"/><path d="M191 170C167.841 170 149 151.159 149 128 149 104.841 167.841 86 191 86 214.159 86 233 104.841 233 128 233 151.159 214.159 170 191 170ZM191 92C171.149 92 155 108.149 155 128 155 147.851 171.149 164 191 164 210.851 164 227 147.851 227 128 227 108.149 210.851 92 191 92Z" fill="#1C2D6B"/><path d="M182 128C182 113.088 186.029 101 191 101 176.088 101 164 113.088 164 128 164 142.912 176.088 155 191 155 186.029 155 182 142.912 182 128Z" fill="#89AADB"/><path d="M191 101C195.971 101 200 113.088 200 128 200 142.912 195.971 155 191 155 205.912 155 218 142.912 218 128 218 113.088 205.912 101 191 101Z" fill="#4B67B0"/><ellipse cx="191" cy="128" rx="9" ry="27" fill="#6287C5"/><path d="M191 158C174.458 158 161 144.542 161 128 161 111.458 174.458 98 191 98 207.542 98 221 111.458 221 128 221 144.542 207.542 158 191 158ZM191 104C177.766 104 167 114.767 167 128 167 141.233 177.766 152 191 152 204.234 152 215 141.233 215 128 215 114.767 204.234 104 191 104Z" fill="#1C2D6B"/><path d="M196.468 166.611C194.68 166.862 192.857 167 191 167 189.143 167 187.319 166.861 185.532 166.61L182.748 200.031C182.345 204.859 186.155 209 191 209 195.845 209 199.655 204.859 199.253 200.031Z" fill="#EEE045"/><path d="M191 212C187.854 212 184.828 210.672 182.698 208.357 180.568 206.042 179.496 202.917 179.758 199.782L182.543 166.361C182.612 165.539 183.016 164.781 183.66 164.266 184.305 163.75 185.132 163.524 185.95 163.639 189.358 164.118 192.643 164.118 196.052 163.639 196.866 163.525 197.698 163.751 198.342 164.266 198.987 164.781 199.39 165.538 199.459 166.361L202.244 199.782C202.505 202.917 201.433 206.043 199.304 208.357 197.171 210.672 194.146 212 191 212ZM188.268 169.908 185.737 200.28C185.613 201.769 186.102 203.195 187.113 204.295 188.124 205.395 189.505 206 191 206 192.494 206 193.875 205.395 194.886 204.295 195.897 203.195 196.386 201.77 196.262 200.28L193.731 169.908C191.895 170.029 190.105 170.029 188.268 169.908Z" fill="#1C2D6B"/></svg>