<svg width="512" height="512" viewBox="0 0 256 256" xmlns="http://www.w3.org/2000/svg" xmlns:xlink="http://www.w3.org/1999/xlink" id="Layer_1" overflow="hidden"><path d="M216.999 240.936 39.001 240.936C25.193 240.936 14 229.743 14 215.935L14 62.238C14 48.431 25.193 37.237 39.001 37.237L217 37.237C230.807 37.237 242.001 48.43 242.001 62.238L242.001 215.935C242 229.743 230.807 240.936 216.999 240.936Z" fill="#F9CFCF"/><g fill="#F9A7A7"><path d="M85.224 133.531 85.224 111.325C85.224 109.095 87.032 107.288 89.262 107.288L117.524 107.288C119.754 107.288 121.561 109.096 121.561 111.325L121.561 133.531C121.561 135.761 119.753 137.568 117.524 137.568L89.261 137.568C87.032 137.568 85.224 135.76 85.224 133.531Z"/><path d="M133.834 133.531 133.834 111.325C133.834 109.095 135.642 107.288 137.872 107.288L166.134 107.288C168.364 107.288 170.171 109.096 170.171 111.325L170.171 133.531C170.171 135.761 168.363 137.568 166.134 137.568L137.872 137.568C135.642 137.568 133.834 135.76 133.834 133.531Z"/><path d="M182.444 133.531 182.444 111.325C182.444 109.095 184.252 107.288 186.481 107.288L214.743 107.288C216.973 107.288 218.781 109.096 218.781 111.325L218.781 133.531C218.781 135.761 216.973 137.568 214.743 137.568L186.481 137.568C184.252 137.568 182.444 135.76 182.444 133.531Z"/><path d="M36.614 173.906 36.614 151.7C36.614 149.47 38.422 147.662 40.652 147.662L68.915 147.662C71.145 147.662 72.952 149.47 72.952 151.7L72.952 173.906C72.952 176.136 71.144 177.943 68.915 177.943L40.651 177.943C38.421 177.943 36.614 176.135 36.614 173.906Z"/><path d="M85.224 173.906 85.224 151.7C85.224 149.47 87.032 147.662 89.262 147.662L117.524 147.662C119.754 147.662 121.561 149.47 121.561 151.7L121.561 173.906C121.561 176.136 119.753 177.943 117.524 177.943L89.261 177.943C87.032 177.943 85.224 176.135 85.224 173.906Z"/><path d="M133.834 173.906 133.834 151.7C133.834 149.47 135.642 147.662 137.872 147.662L166.134 147.662C168.364 147.662 170.171 149.47 170.171 151.7L170.171 173.906C170.171 176.136 168.363 177.943 166.134 177.943L137.872 177.943C135.642 177.943 133.834 176.135 133.834 173.906Z"/><path d="M182.444 173.906 182.444 151.7C182.444 149.47 184.252 147.662 186.481 147.662L214.743 147.662C216.973 147.662 218.781 149.47 218.781 151.7L218.781 173.906C218.781 176.136 216.973 177.943 214.743 177.943L186.481 177.943C184.252 177.943 182.444 176.135 182.444 173.906Z"/><path d="M36.614 216.299 36.614 194.093C36.614 191.863 38.422 190.055 40.652 190.055L68.915 190.055C71.145 190.055 72.952 191.863 72.952 194.093L72.952 216.299C72.952 218.529 71.144 220.336 68.915 220.336L40.651 220.336C38.421 220.337 36.614 218.529 36.614 216.299Z"/><path d="M85.224 216.299 85.224 194.093C85.224 191.863 87.032 190.055 89.262 190.055L117.524 190.055C119.754 190.055 121.561 191.863 121.561 194.093L121.561 216.299C121.561 218.529 119.753 220.336 117.524 220.336L89.261 220.336C87.032 220.337 85.224 218.529 85.224 216.299Z"/><path d="M133.834 216.299 133.834 194.093C133.834 191.863 135.642 190.055 137.872 190.055L166.134 190.055C168.364 190.055 170.171 191.863 170.171 194.093L170.171 216.299C170.171 218.529 168.363 220.336 166.134 220.336L137.872 220.336C135.642 220.337 133.834 218.529 133.834 216.299Z"/></g><path d="M14 62.238 14 88.659 242 88.659 242 62.238C242 48.431 230.807 37.237 216.999 37.237L39.001 37.237C25.193 37.237 14 48.431 14 62.238Z" fill="#A4C9FF"/><path d="M216.999 242.936 39 242.936C24.112 242.936 12 230.824 12 215.936L12 62.238C12 47.349 24.112 35.237 39 35.237L216.999 35.237C231.888 35.237 244 47.35 244 62.238L244 215.935C244 230.823 231.888 242.936 216.999 242.936ZM39 39.237C26.317 39.237 16 49.555 16 62.238L16 215.935C16 228.618 26.318 238.935 39 238.935L216.999 238.935C229.682 238.935 240 228.618 240 215.935L240 62.238C240 49.555 229.682 39.237 216.999 39.237Z" fill="#3762CC"/><path d="M242 90.659 14 90.659C12.896 90.659 12 89.763 12 88.659L12 62.238C12 47.349 24.112 35.237 39 35.237L216.999 35.237C231.888 35.237 244 47.35 244 62.238L244 88.659C244 89.764 243.104 90.659 242 90.659ZM16 86.659 240 86.659 240 62.238C240 49.555 229.682 39.237 216.999 39.237L39 39.237C26.317 39.237 16 49.555 16 62.238Z" fill="#3762CC"/><path d="M192.125 68.502 191.625 68.502C185.067 68.502 179.75 63.185 179.75 56.627L179.75 26.939C179.75 20.381 185.067 15.064 191.625 15.064L192.125 15.064C198.683 15.064 204 20.381 204 26.939L204 56.627C204 63.185 198.683 68.502 192.125 68.502Z" fill="#E0EBFC"/><path d="M64.375 68.502 63.875 68.502C57.317 68.502 52 63.185 52 56.627L52 26.939C52 20.381 57.317 15.064 63.875 15.064L64.375 15.064C70.933 15.064 76.25 20.381 76.25 26.939L76.25 56.627C76.25 63.185 70.933 68.502 64.375 68.502Z" fill="#E0EBFC"/><path d="M192.125 70.502 191.625 70.502C183.975 70.502 177.75 64.277 177.75 56.627L177.75 26.939C177.75 19.289 183.975 13.064 191.625 13.064L192.125 13.064C199.775 13.064 206 19.289 206 26.939L206 56.627C206 64.277 199.775 70.502 192.125 70.502ZM191.625 17.064C186.18 17.064 181.75 21.494 181.75 26.939L181.75 56.627C181.75 62.072 186.18 66.502 191.625 66.502L192.125 66.502C197.57 66.502 202 62.072 202 56.627L202 26.939C202 21.494 197.57 17.064 192.125 17.064Z" fill="#3762CC"/><path d="M64.375 70.502 63.875 70.502C56.224 70.502 50 64.277 50 56.627L50 26.939C50 19.289 56.224 13.064 63.875 13.064L64.375 13.064C72.026 13.064 78.25 19.289 78.25 26.939L78.25 56.627C78.25 64.277 72.025 70.502 64.375 70.502ZM63.875 17.064C58.43 17.064 54 21.494 54 26.939L54 56.627C54 62.072 58.43 66.502 63.875 66.502L64.375 66.502C69.82 66.502 74.25 62.072 74.25 56.627L74.25 26.939C74.25 21.494 69.82 17.064 64.375 17.064Z" fill="#3762CC"/><path d="M127.948 68.502 127.448 68.502C120.89 68.502 115.573 63.185 115.573 56.627L115.573 26.939C115.573 20.381 120.89 15.064 127.448 15.064L127.948 15.064C134.506 15.064 139.823 20.381 139.823 26.939L139.823 56.627C139.823 63.185 134.506 68.502 127.948 68.502Z" fill="#E0EBFC"/><path d="M192.125 70.502 191.625 70.502C183.975 70.502 177.75 64.277 177.75 56.627L177.75 26.939C177.75 19.289 183.975 13.064 191.625 13.064L192.125 13.064C199.775 13.064 206 19.289 206 26.939L206 56.627C206 64.277 199.775 70.502 192.125 70.502ZM191.625 17.064C186.18 17.064 181.75 21.494 181.75 26.939L181.75 56.627C181.75 62.072 186.18 66.502 191.625 66.502L192.125 66.502C197.57 66.502 202 62.072 202 56.627L202 26.939C202 21.494 197.57 17.064 192.125 17.064Z" fill="#3762CC"/><path d="M127.948 70.502 127.448 70.502C119.797 70.502 113.573 64.277 113.573 56.627L113.573 26.939C113.573 19.289 119.797 13.064 127.448 13.064L127.948 13.064C135.599 13.064 141.823 19.289 141.823 26.939L141.823 56.627C141.822 64.277 135.599 70.502 127.948 70.502ZM127.448 17.064C122.003 17.064 117.573 21.494 117.573 26.939L117.573 56.627C117.573 62.072 122.003 66.502 127.448 66.502L127.948 66.502C133.393 66.502 137.823 62.072 137.823 56.627L137.823 26.939C137.823 21.494 133.393 17.064 127.948 17.064Z" fill="#3762CC"/><path d="M204.3 195.218C202.317 195.218 200.709 193.607 200.709 191.619L200.709 146.412C200.709 144.424 202.317 142.813 204.3 142.813 206.283 142.813 207.891 144.424 207.891 146.412L207.891 191.619C207.891 193.606 206.283 195.218 204.3 195.218Z" fill="#FFEA94"/><path d="M209.093 208.715 198.012 208.715C197.022 208.715 196.22 207.913 196.22 206.923L196.22 195.339C196.22 191.297 199.497 188.02 203.539 188.02L203.567 188.02C207.609 188.02 210.886 191.297 210.886 195.339L210.886 206.923C210.885 207.912 210.083 208.715 209.093 208.715Z" fill="#FFEA94"/><path d="M122.619 112.353 47.764 142.381C44.182 143.818 44.249 149.015 47.866 150.356L122.828 178.134C124.708 178.831 126.768 178.831 128.647 178.134L203.631 150.348C207.241 149.01 207.308 143.824 203.733 142.39L128.856 112.353C126.852 111.549 124.624 111.549 122.619 112.353Z" fill="#4671C6"/><path d="M125.738 180.656C124.517 180.656 123.296 180.44 122.134 180.01L47.172 152.232C44.743 151.332 43.151 149.056 43.116 146.434 43.081 143.81 44.614 141.491 47.02 140.526L121.875 110.498C124.366 109.498 127.111 109.498 129.603 110.498L204.48 140.535C206.883 141.499 208.414 143.814 208.378 146.434 208.344 149.053 206.754 151.326 204.328 152.224L129.344 180.01C128.18 180.44 126.959 180.656 125.738 180.656ZM125.738 113.749C124.934 113.749 124.13 113.902 123.364 114.21L48.509 144.238C47.196 144.764 47.111 146.01 47.115 146.38 47.119 146.75 47.239 147.991 48.561 148.482L123.523 176.26C124.952 176.786 126.524 176.786 127.953 176.26L202.937 148.474C204.254 147.986 204.374 146.748 204.378 146.381 204.383 146.013 204.297 144.772 202.99 144.247L128.112 114.21C127.347 113.902 126.542 113.749 125.738 113.749ZM122.619 112.354 122.629 112.354Z" fill="#3762CC"/><path d="M166.79 153.46C156.861 151.52 119.674 145.357 82.575 153.443 81.103 153.764 80.147 154.566 80.147 155.443L80.147 155.485 80.147 175.475 80.147 175.477C80.147 176.387 81.164 177.196 82.714 177.499 92.643 179.439 129.83 185.602 166.929 177.516 168.401 177.195 169.357 176.393 169.357 175.516L169.357 175.474 169.357 155.484 169.357 155.482C169.357 154.573 168.34 153.763 166.79 153.46Z" fill="#4671C6"/><path d="M126.603 183.578C105.784 183.579 88.882 180.741 82.331 179.461 79.789 178.965 78.147 177.4 78.147 175.476L78.147 155.485C78.147 153.571 79.718 152.019 82.149 151.49 119.418 143.364 156.649 149.442 167.173 151.498 169.714 151.994 171.357 153.559 171.357 155.483L171.357 175.474C171.357 177.388 169.786 178.94 167.355 179.469 153.289 182.535 139.226 183.578 126.603 183.578ZM82.147 175.188C82.298 175.289 82.604 175.439 83.097 175.536 93.43 177.556 129.984 183.521 166.503 175.561 166.941 175.465 167.217 175.326 167.357 175.231L167.357 155.771C167.206 155.67 166.9 155.52 166.406 155.423 156.074 153.404 119.522 147.437 83.001 155.398 82.562 155.494 82.287 155.633 82.147 155.728ZM167.462 155.855 167.473 155.855Z" fill="#3762CC"/><path d="M167.755 187.04 167.755 187 85.238 187C92.634 187.002 98.629 192.998 98.629 200.395 98.629 207.524 93.055 213.335 86.031 213.749L165.778 213.749C166.105 213.773 166.434 213.789 166.767 213.789 174.165 213.789 180.162 207.792 180.162 200.394 180.161 193.33 174.69 187.547 167.755 187.04Z" fill="#E0EBFC"/><circle cx="85.234" cy="200.395" r="13.395" fill="#A4C9FF"/><path d="M85.234 210.178C79.839 210.178 75.451 205.789 75.451 200.394 75.451 194.999 79.84 190.611 85.234 190.611 90.628 190.611 95.017 194.999 95.017 200.394 95.017 205.789 90.628 210.178 85.234 210.178ZM85.234 192.706C80.995 192.706 77.546 196.155 77.546 200.394 77.546 204.634 80.995 208.083 85.234 208.083 89.473 208.083 92.922 204.634 92.922 200.394 92.922 196.156 89.474 192.706 85.234 192.706Z" fill="#E0EBFC"/><path d="M85.234 205.519C82.408 205.519 80.11 203.221 80.11 200.394 80.11 197.569 82.408 195.27 85.234 195.27 88.06 195.27 90.358 197.568 90.358 200.394 90.358 203.221 88.06 205.519 85.234 205.519ZM85.234 197.366C83.564 197.366 82.205 198.724 82.205 200.395 82.205 202.065 83.564 203.425 85.234 203.425 86.904 203.425 88.263 202.066 88.263 200.395 88.263 198.724 86.905 197.366 85.234 197.366Z" fill="#E0EBFC"/><path d="M135.142 187.04 135.142 187 121.165 187 121.165 187.04C128.101 187.546 133.571 193.33 133.571 200.394 133.571 207.458 128.102 213.24 121.168 213.748L133.165 213.748C133.492 213.772 133.821 213.788 134.154 213.788 141.552 213.788 147.549 207.791 147.549 200.393 147.548 193.33 142.077 187.547 135.142 187.04Z" fill="#4671C6"/><path d="M123.038 213.749 123.038 225.025C123.038 225.799 123.974 226.187 124.521 225.64L129.167 220.994C129.506 220.654 130.057 220.654 130.396 220.994L135.042 225.64C135.589 226.187 136.525 225.8 136.525 225.025L136.525 213.749Z" fill="#4671C6"/><path d="M85.234 215.789C76.745 215.789 69.839 208.883 69.839 200.394 69.839 191.905 76.745 185 85.234 185 93.723 185 100.629 191.906 100.629 200.395 100.629 208.884 93.723 215.789 85.234 215.789ZM85.234 189C78.951 189 73.839 194.111 73.839 200.395 73.839 206.679 78.95 211.79 85.234 211.79 91.518 211.79 96.629 206.679 96.629 200.395 96.629 194.111 91.517 189 85.234 189Z" fill="#3762CC"/><path d="M166.766 215.789C166.411 215.789 166.058 215.773 165.707 215.749L86.03 215.749C84.948 215.749 84.063 214.889 84.031 213.808 83.999 212.727 84.833 211.817 85.912 211.753 91.921 211.399 96.628 206.409 96.628 200.395 96.628 194.114 91.518 189.002 85.237 189 84.133 189 83.237 188.104 83.237 187 83.237 185.896 84.133 185 85.237 185L167.754 185C167.952 185 168.143 185.028 168.323 185.082 176.117 185.869 182.16 192.514 182.159 200.395 182.16 208.883 175.254 215.789 166.766 215.789ZM95.61 211.749 165.777 211.749C165.825 211.749 165.873 211.751 165.92 211.754 166.2 211.775 166.482 211.789 166.766 211.789 173.049 211.789 178.161 206.678 178.161 200.394 178.162 194.456 173.527 189.466 167.61 189.035 167.524 189.028 167.439 189.016 167.356 189L95.575 189C98.678 191.818 100.629 195.883 100.629 200.395 100.628 204.871 98.7 208.928 95.61 211.749Z" fill="#3762CC"/></svg>