<svg width="512" height="512" viewBox="0 0 512 512" xmlns="http://www.w3.org/2000/svg" xmlns:xlink="http://www.w3.org/1999/xlink" id="Capa_1" overflow="hidden"><path d="M374.073 7.5 30.996 7.5C18.136 7.5 7.711 17.925 7.711 30.785L7.711 481.215C7.711 494.075 18.136 504.5 30.996 504.5L374.072 504.5C386.932 504.5 397.357 494.075 397.357 481.215L397.357 30.785C397.358 17.925 386.933 7.5 374.073 7.5Z" fill="#EFE7E4"/><circle cx="95.72" cy="130.421" r="40.398" fill="#B1E4F9"/><circle cx="202.535" cy="130.421" r="40.398" fill="#B1E4F9"/><circle cx="309.349" cy="130.421" r="40.398" fill="#DA4A54"/><circle cx="95.72" cy="279.96" r="40.398" fill="#DA4A54"/><g fill="#B1E4F9"><circle cx="202.535" cy="279.96" r="40.398"/><circle cx="309.349" cy="279.96" r="40.398"/><circle cx="95.72" cy="434.872" r="40.398"/></g><circle cx="202.535" cy="434.872" r="40.398" fill="#DA4A54"/><circle cx="309.349" cy="434.872" r="40.398" fill="#B1E4F9"/><path d="M471.073 103.931 481.521 77.727C484.162 71.104 480.928 63.581 474.305 60.941L453.981 52.837C447.349 50.193 439.835 53.43 437.195 60.053L426.747 86.257" fill="#F1D333"/><path d="M470.645 59.482C464.013 56.838 456.499 60.075 453.859 66.698L443.411 92.902 426.747 86.258 437.195 60.054C439.836 53.431 447.349 50.194 453.981 52.838Z" fill="#E7A52E"/><path d="M438.924 236.233C403.206 325.815 356.366 391.315 334.305 382.518 312.244 373.722 323.322 293.963 359.04 204.381 377.151 158.959 398.125 119.723 417.269 93.237 422.473 86.038 431.916 83.323 440.167 86.613L461.085 94.953C469.336 98.243 474.321 106.711 473.143 115.515 468.812 147.908 457.035 190.811 438.924 236.233Z" fill="#B9A0D3"/><path d="M334.305 382.519C312.244 373.723 323.322 293.964 359.04 204.382 377.151 158.96 398.123 119.727 417.267 93.233 422.471 86.039 431.919 83.325 440.167 86.614L447.747 89.636C445.48 88.732 441.272 93.535 437.535 101.314 423.751 129.945 406.113 170.507 388.002 215.93 352.285 305.511 328.239 380.1 334.305 382.519Z" fill="#9373B9"/><path d="M95.72 178.319C122.131 178.319 143.618 156.832 143.618 130.421 143.618 104.01 122.131 82.523 95.72 82.523 69.309 82.523 47.823 104.01 47.823 130.421 47.823 156.832 69.308 178.319 95.72 178.319ZM95.72 97.523C113.861 97.523 128.618 112.281 128.618 130.421 128.618 148.561 113.86 163.319 95.72 163.319 77.58 163.319 62.823 148.561 62.823 130.421 62.822 112.281 77.58 97.523 95.72 97.523Z"/><path d="M154.637 130.421C154.637 156.832 176.124 178.319 202.535 178.319 228.946 178.319 250.432 156.832 250.432 130.421 250.432 104.01 228.946 82.523 202.535 82.523 176.124 82.523 154.637 104.01 154.637 130.421ZM235.432 130.421C235.432 148.561 220.674 163.319 202.535 163.319 184.394 163.319 169.637 148.561 169.637 130.421 169.637 112.281 184.395 97.523 202.535 97.523 220.675 97.523 235.432 112.281 235.432 130.421Z"/><path d="M309.349 178.319C335.76 178.319 357.247 156.832 357.247 130.421 357.247 104.01 335.76 82.523 309.349 82.523 282.938 82.523 261.451 104.01 261.451 130.421 261.451 156.832 282.938 178.319 309.349 178.319ZM309.349 97.523C327.49 97.523 342.247 112.281 342.247 130.421 342.247 148.561 327.489 163.319 309.349 163.319 291.209 163.319 276.451 148.561 276.451 130.421 276.451 112.281 291.209 97.523 309.349 97.523Z"/><path d="M265.738 51.131 55.322 51.131C51.179 51.131 47.822 54.489 47.822 58.631 47.822 62.773 51.179 66.131 55.322 66.131L265.738 66.131C269.881 66.131 273.238 62.773 273.238 58.631 273.238 54.489 269.881 51.131 265.738 51.131Z"/><path d="M95.72 327.858C122.131 327.858 143.618 306.371 143.618 279.96 143.618 253.549 122.131 232.062 95.72 232.062 69.309 232.062 47.823 253.549 47.823 279.96 47.823 306.371 69.308 327.858 95.72 327.858ZM95.72 247.062C113.861 247.062 128.618 261.82 128.618 279.96 128.618 298.1 113.86 312.858 95.72 312.858 77.58 312.858 62.823 298.1 62.823 279.96 62.823 261.82 77.58 247.062 95.72 247.062Z"/><path d="M154.637 279.96C154.637 306.371 176.124 327.858 202.535 327.858 228.946 327.858 250.432 306.371 250.432 279.96 250.432 253.549 228.946 232.062 202.535 232.062 176.124 232.062 154.637 253.549 154.637 279.96ZM235.432 279.96C235.432 298.1 220.674 312.858 202.535 312.858 184.394 312.858 169.637 298.1 169.637 279.96 169.637 261.82 184.395 247.062 202.535 247.062 220.675 247.062 235.432 261.82 235.432 279.96Z"/><path d="M55.322 215.67 265.738 215.67C269.881 215.67 273.238 212.312 273.238 208.17 273.238 204.028 269.881 200.67 265.738 200.67L55.322 200.67C51.179 200.67 47.822 204.028 47.822 208.17 47.822 212.312 51.18 215.67 55.322 215.67Z"/><path d="M95.72 482.77C122.131 482.77 143.618 461.283 143.618 434.872 143.618 408.461 122.131 386.974 95.72 386.974 69.309 386.974 47.823 408.461 47.823 434.872 47.823 461.283 69.308 482.77 95.72 482.77ZM95.72 401.974C113.861 401.974 128.618 416.732 128.618 434.872 128.618 453.012 113.86 467.77 95.72 467.77 77.58 467.77 62.823 453.012 62.823 434.872 62.823 416.732 77.58 401.974 95.72 401.974Z"/><path d="M154.637 434.872C154.637 461.283 176.124 482.77 202.535 482.77 228.946 482.77 250.432 461.283 250.432 434.872 250.432 408.461 228.946 386.974 202.535 386.974 176.124 386.974 154.637 408.461 154.637 434.872ZM235.432 434.872C235.432 453.012 220.674 467.77 202.535 467.77 184.394 467.77 169.637 453.012 169.637 434.872 169.637 416.732 184.395 401.974 202.535 401.974 220.675 401.974 235.432 416.732 235.432 434.872Z"/><path d="M309.349 482.77C335.76 482.77 357.247 461.283 357.247 434.872 357.247 408.461 335.76 386.974 309.349 386.974 282.938 386.974 261.451 408.461 261.451 434.872 261.451 461.283 282.938 482.77 309.349 482.77ZM309.349 401.974C327.49 401.974 342.247 416.732 342.247 434.872 342.247 453.012 327.489 467.77 309.349 467.77 291.209 467.77 276.451 453.012 276.451 434.872 276.451 416.732 291.209 401.974 309.349 401.974Z"/><path d="M55.322 370.582 265.738 370.582C269.881 370.582 273.238 367.224 273.238 363.082 273.238 358.94 269.881 355.582 265.738 355.582L55.322 355.582C51.179 355.582 47.822 358.94 47.822 363.082 47.822 367.224 51.18 370.582 55.322 370.582Z"/><path d="M483.829 92.191 488.488 80.506C492.658 70.047 487.542 58.146 477.082 53.975L456.759 45.871C451.691 43.85 446.139 43.924 441.127 46.081 436.118 48.236 432.247 52.212 430.228 57.276L420.939 80.573C417.166 82.461 413.797 85.242 411.195 88.846 409.09 91.757 406.977 94.803 404.862 97.961L404.862 30.78C404.862 13.808 391.049 0 374.072 0L30.991 0C14.019 0 0.212 13.808 0.212 30.78L0.212 405.244C0.212 409.386 3.569 412.744 7.712 412.744 11.855 412.744 15.212 409.386 15.212 405.244L15.212 30.78C15.212 22.079 22.29 15 30.991 15L374.071 15C382.778 15 389.861 22.079 389.861 30.78L389.861 122.268C376.609 145.431 363.657 172.554 352.075 201.602 346.74 214.98 341.9 228.275 337.604 241.268 329.498 235.331 319.682 232.06 309.351 232.06 282.939 232.06 261.451 253.548 261.451 279.96 261.451 306.372 282.939 327.86 309.351 327.86 311.933 327.86 314.481 327.658 316.985 327.258 312.627 362.963 317.508 383.896 331.525 389.487 333.777 390.384 336.129 390.832 338.582 390.832 352.032 390.831 368.475 377.357 387.589 350.63 388.346 349.572 389.103 348.492 389.861 347.402L389.861 481.22C389.861 489.921 382.778 497 374.071 497L30.991 497C22.29 497 15.212 489.921 15.212 481.22L15.212 435.244C15.212 431.102 11.855 427.744 7.712 427.744 3.569 427.744 0.212 431.102 0.212 435.244L0.212 481.22C0.212 498.192 14.02 512 30.991 512L374.071 512C391.049 512 404.861 498.192 404.861 481.22L404.861 323.908C419.249 299.543 433.388 270.357 445.888 239.006 454.854 216.513 462.438 194.294 468.432 172.968 469.552 168.98 467.228 164.839 463.241 163.719 459.254 162.599 455.112 164.922 453.991 168.91 448.14 189.731 440.725 211.446 431.955 233.452 424.96 250.996 417.455 267.82 409.695 283.44L347.776 258.752C352.894 242.074 359.01 224.707 366.008 207.157 383.333 163.704 403.696 124.809 423.351 97.631 426.538 93.218 432.311 91.55 437.393 93.576L458.306 101.917C463.387 103.941 466.43 109.125 465.707 114.525 464.643 122.48 463.106 131.13 461.14 140.236 460.266 144.285 462.839 148.276 466.888 149.15 470.928 150.025 474.927 147.452 475.802 143.403 477.853 133.909 479.458 124.862 480.574 116.515 481.013 113.236 480.822 109.998 480.112 106.919 491.746 112.316 497.345 121.952 496.744 135.687 495.892 155.058 477.725 190.507 461.697 221.783 442.07 260.08 430.195 284.223 433.218 297.463 434.012 300.94 437.102 303.295 440.523 303.295 441.076 303.295 441.637 303.233 442.2 303.105 446.238 302.183 448.763 298.162 447.842 294.124 447.488 292.576 447.424 287.207 454.439 270.829 459.637 258.691 467.123 244.086 475.046 228.623 492.592 194.387 510.734 158.986 511.731 136.344 512.643 115.519 502.573 99.807 483.829 92.191ZM276.451 279.96C276.451 261.819 291.21 247.06 309.351 247.06 318.215 247.06 326.536 250.558 332.699 256.768 326.847 276.129 322.341 294.561 319.393 311.296 316.171 312.331 312.809 312.86 309.351 312.86 291.21 312.86 276.451 298.101 276.451 279.96ZM402.817 296.846C393.782 313.883 384.511 329.148 375.388 341.905 353.855 372.015 340.902 377.084 337.08 375.554 333.245 374.024 327.339 361.443 332.432 324.774 334.589 309.246 338.381 291.783 343.544 273.213ZM442.95 79.644C441.333 78.999 439.684 78.538 438.025 78.22L444.16 62.832C444.696 61.488 445.723 60.433 447.054 59.861 448.383 59.289 449.857 59.269 451.203 59.805L471.525 67.909C474.302 69.016 475.661 72.175 474.553 74.951L468.417 90.341C466.993 89.43 465.478 88.63 463.859 87.985Z"/></svg>